<svg xmlns="http://www.w3.org/2000/svg" xmlns:xlink="http://www.w3.org/1999/xlink" width="24" height="24" viewBox="0 0 24 24"><defs><clipPath id="a"><rect width="24" height="24" fill="none"/></clipPath></defs><rect width="24" height="24" fill="#fff"/><g clip-path="url(#a)"><path d="M7.125.5h9.129a2.483,2.483,0,0,1,1.767.732l2.122,2.121a2.489,2.489,0,0,1,.732,1.768V19.5a4,4,0,0,1-4,4H7.125a4,4,0,0,1-4-4V4.5A4,4,0,0,1,7.125.5Zm9.75,21a2,2,0,0,0,2-2V5.121a.5.5,0,0,0-.147-.355l-2.121-2.12a.5.5,0,0,0-.353-.146H7.125a2,2,0,0,0-2,2v15a2,2,0,0,0,2,2Z" fill="#406FAF"/><path d="M16.043,16.758h-14a1,1,0,0,1-1-1v-6a1,1,0,0,1,1-1h14a1,1,0,0,1,1,1v6a1,1,0,0,1-1,1" fill="#406FAF"/></g><text transform="translate(2.779 15.328)" fill="#fff" font-size="7" font-family="DIN2014-Demi, 'DIN \32 014'" font-weight="300"><tspan x="0" y="0">P</tspan></text><text transform="translate(7.182 15.328)" fill="#fff" font-size="7" font-family="DIN2014-Demi, 'DIN \32 014'" font-weight="300"><tspan x="0" y="0">D</tspan></text><text transform="translate(11.634 15.328)" fill="#fff" font-size="7" font-family="DIN2014-Demi, 'DIN \32 014'" font-weight="300"><tspan x="0" y="0">F</tspan></text><g clip-path="url(#a)"><path d="M19.875,6.5h-5v-5h1.379a1.5,1.5,0,0,1,1.06.439l2.122,2.122a1.5,1.5,0,0,1,.439,1.06Z" fill="#406FAF"/></g></svg>