<svg xmlns="http://www.w3.org/2000/svg" width="32" height="32" viewBox="0 0 32 32"><g transform="translate(0.212)"><rect width="32" height="32" transform="translate(-0.212)" fill="#fff"/><g transform="translate(5.5 2)"><path d="M3-1.25H18A4.255,4.255,0,0,1,22.25,3V25A4.255,4.255,0,0,1,18,29.25H3A4.255,4.255,0,0,1-1.25,25V3A4.255,4.255,0,0,1,3-1.25Zm15,28A1.752,1.752,0,0,0,19.75,25V3A1.752,1.752,0,0,0,18,1.25H3A1.752,1.752,0,0,0,1.25,3V25A1.752,1.752,0,0,0,3,26.75Z" fill="#221715"/><path d="M.5-1.25h10A1.752,1.752,0,0,1,12.25.5V1A1.752,1.752,0,0,1,10.5,2.75H.5A1.752,1.752,0,0,1-1.25,1V.5A1.752,1.752,0,0,1,.5-1.25Z" transform="translate(5 6)" fill="#221715"/><g transform="translate(4.5 11)"><circle cx="1.5" cy="1.5" r="1.5" transform="translate(-0.212)" fill="#e93817"/><circle cx="1.5" cy="1.5" r="1.5" transform="translate(-0.212 5)" fill="#e93817"/><circle cx="1.5" cy="1.5" r="1.5" transform="translate(-0.212 10)" fill="#e93817"/><circle cx="1.5" cy="1.5" r="1.5" transform="translate(4.5)" fill="#e93817"/><circle cx="1.5" cy="1.5" r="1.5" transform="translate(4.5 5)" fill="#e93817"/><circle cx="1.5" cy="1.5" r="1.5" transform="translate(4.5 10)" fill="#e93817"/><circle cx="1.5" cy="1.5" r="1.5" transform="translate(8.788)" fill="#e93817"/><circle cx="1.5" cy="1.5" r="1.5" transform="translate(8.788 5)" fill="#e93817"/><circle cx="1.5" cy="1.5" r="1.5" transform="translate(8.788 10)" fill="#e93817"/></g></g></g></svg>