<svg xmlns="http://www.w3.org/2000/svg" width="16" height="16" viewBox="0 0 16 16"><rect width="16" height="16" fill="#fcfcfc" opacity="0"/><g transform="translate(1.334 1.334)"><path d="M2-.835H6.667A2.838,2.838,0,0,1,9.5,2V6.667A2.838,2.838,0,0,1,6.667,9.5H2A2.838,2.838,0,0,1-.835,6.667V2A2.838,2.838,0,0,1,2-.835ZM6.667,7.832A1.166,1.166,0,0,0,7.832,6.667V2A1.166,1.166,0,0,0,6.667.835H2A1.166,1.166,0,0,0,.835,2V6.667A1.166,1.166,0,0,0,2,7.832Z" transform="translate(4.666 4.666)" fill="#fff"/><path d="M3.667,11.168H3A2.171,2.171,0,0,1,.832,9V3A2.17,2.17,0,0,1,3,.832H9A2.171,2.171,0,0,1,11.168,3v.667a.835.835,0,1,1-1.67,0V3A.5.5,0,0,0,9,2.5H3a.5.5,0,0,0-.5.5V9a.5.5,0,0,0,.5.5h.667a.835.835,0,1,1,0,1.67Z" transform="translate(-1.667 -1.667)" fill="#fff"/></g></svg>